PathFileType	3	(X/Y/Z)	D:\minhoCalibration\240510\subject1_KPNP\preferred\preferred14.trc
DataRate	CameraRate	NumFrames	NumMarkers	Units	OrigDataRate	OrigDataStartFrame	OrigNumFrames
200.0	200.0	33	10	mm	200.0	382	208	
Frame#	Time	Left_Ankle_Outer1			Left_Ankle_Inner1			Left_Knee_Outer1			Left_Knee_Inner1			Left_Wrist1			Right_Wrist1			Right_Knee_Inner1			Right_Knee_Outer1			Right_Ankle_Inner1			Right_Ankle_Outer1			
		X1	Y1	Z1	X2	Y2	Z2	X3	Y3	Z3	X4	Y4	Z4	X5	Y5	Z5	X6	Y6	Z6	X7	Y7	Z7	X8	Y8	Z8	X9	Y9	Z9	X10	Y10	Z10	
382	1.9	-511.60757	130.6255	-595.23328	-559.07977	134.65529	-564.20435	-439.61349	559.2392	-437.48383	-552.56702	525.91443	-447.08569	-450.99152	940.24945	-652.61737	-683.1955	967.25836	-917.04938	-690.16412	488.31342	-910.58905	-726.68909	533.32953	-1009.7733	-598.29553	107.54626	-1118.0829	-678.13513	114.74763	-1197.7906
383	1.905	-508.99948	130.26054	-594.82648	-557.17706	134.15625	-565.86859	-439.56363	558.07971	-434.59491	-552.23877	525.13232	-444.40674	-448.9303	938.96454	-650.19965	-683.62103	966.16345	-913.02527	-692.83392	487.02289	-906.00061	-729.40405	532.48907	-1005.5099	-598.70624	108.38521	-1116.7538	-678.17047	115.91006	-1196.7273
384	1.91	-505.48434	130.24164	-595.04138	-554.22357	133.73216	-566.91553	-439.80261	556.86792	-431.83224	-552.0517	524.28888	-442.03094	-446.64822	937.86127	-647.78784	-684.29712	965.37585	-907.57959	-695.86237	485.79303	-901.06073	-732.36658	531.71173	-1000.8622	-599.14221	109.63599	-1115.057	-677.93378	117.59334	-1195.5852
385	1.915	-501.59055	129.99199	-594.96307	-550.89691	133.25688	-568.1366	-440.04825	555.7525	-429.04645	-551.97272	523.4577	-440.0426	-444.27368	936.91589	-645.29968	-684.78436	964.48566	-902.47827	-699.23761	484.66516	-895.49658	-735.70837	531.06323	-995.74323	-599.64813	111.15942	-1112.9172	-677.67206	119.32287	-1193.9675
386	1.92	-497.38654	129.58037	-594.88861	-547.23926	132.72234	-569.42633	-440.48959	554.65344	-426.26724	-551.99506	522.58606	-438.40128	-441.79446	936.18115	-642.67737	-685.10626	963.94556	-897.14301	-703.17328	483.69574	-889.45776	-739.31903	530.62769	-990.2226	-600.29352	113.01031	-1110.5192	-677.67004	121.02816	-1192.0757
387	1.925	-492.76938	129.25336	-594.77399	-543.1347	132.14322	-570.63574	-441.01587	553.54572	-423.56827	-552.01953	521.58575	-437.30325	-439.25107	935.67798	-639.9306	-685.52716	963.17352	-891.71594	-707.48187	483.00412	-882.70752	-743.4328	530.47437	-984.33142	-601.1806	115.41616	-1107.809	-677.62122	124.26968	-1189.8848
388	1.93	-488.05273	128.65004	-594.61536	-538.97681	131.38942	-571.8999	-441.55347	552.48615	-420.95535	-552.13434	520.4679	-436.66867	-436.59796	935.52252	-637.10455	-685.9538	962.59003	-885.47626	-712.35968	482.58984	-875.23877	-748.01593	530.49762	-977.69977	-602.19507	118.49052	-1104.7736	-677.98718	127.23586	-1187.583
389	1.935	-483.24014	127.9325	-594.36334	-534.73883	130.47171	-573.23914	-442.10135	551.33832	-418.45239	-552.01337	519.22211	-436.49734	-433.86938	935.68579	-634.0965	-685.77435	962.63928	-880.42316	-717.70679	482.58182	-867.14319	-753.09515	530.74817	-969.90802	-603.19574	122.25467	-1101.4529	-678.23077	131.29222	-1184.6879
390	1.94	-478.52362	127.01482	-594.30658	-530.51129	129.41795	-574.48651	-442.39868	550.12225	-416.08145	-551.73431	517.71606	-436.87503	-431.09369	936.18695	-630.91077	-685.68982	962.64136	-874.87805	-723.72229	483.10291	-858.28186	-758.89172	531.53296	-961.68188	-604.54694	126.71216	-1097.5881	-678.59802	136.12975	-1181.3992
391	1.945	-474.08093	126.09377	-594.31714	-526.73944	128.4951	-576.10461	-442.52338	548.79205	-414.06201	-551.24994	516.15808	-437.72638	-428.33939	937.04504	-627.6109	-685.50079	962.52899	-868.81915	-730.15857	484.16824	-848.57861	-765.48407	532.83643	-952.95782	-606.12903	131.97975	-1093.3497	-679.7171	141.47473	-1177.3605
392	1.95	-470.07953	125.09712	-594.49323	-523.21802	127.20631	-577.45697	-442.40933	547.34265	-412.38547	-550.52588	514.54962	-438.78354	-425.63055	938.23962	-624.11713	-684.96844	963.40546	-861.93054	-737.22699	485.89145	-838.26813	-772.70746	534.37683	-942.86523	-608.47809	138.04045	-1088.4999	-681.6178	147.86934	-1172.689
393	1.955	-466.8074	123.96654	-594.69739	-520.42322	126.43983	-579.39618	-441.88025	545.80328	-411.04373	-549.47833	512.85461	-440.17938	-422.91119	939.87598	-620.4657	-684.31036	963.94415	-855.92871	-744.43127	487.87982	-826.74762	-780.38025	536.34613	-931.85382	-611.30865	144.83827	-1082.9114	-684.02386	154.75459	-1167.1761
394	1.96	-464.97919	122.00649	-594.41772	-517.51489	125.30893	-580.09985	-440.9975	544.28772	-410.20926	-548.10211	511.37936	-441.71872	-420.25742	941.90784	-616.62701	-683.20496	964.58093	-851.24835	-752.09143	490.42188	-814.4646	-788.55347	538.86176	-919.63037	-614.83844	152.24281	-1076.6433	-687.55389	162.63058	-1160.8264
395	1.965	-462.28925	121.47553	-595.12775	-516.02551	124.67251	-581.51996	-439.63593	542.91913	-409.77301	-546.36517	509.99768	-443.34857	-417.6861	944.25128	-612.69763	-682.11987	965.32245	-844.93359	-759.8678	493.33087	-801.53723	-797.05103	541.83325	-907.0072	-619.40381	160.24689	-1069.3724	-691.78046	170.9243	-1153.4985
396	1.97	-460.89114	120.54583	-595.27771	-514.48706	123.91361	-582.1673	-437.78073	541.81519	-409.63858	-544.3689	508.76886	-444.99411	-415.20847	946.98065	-608.68872	-681.07751	965.99097	-838.38519	-767.64404	496.49075	-788.61871	-805.57269	545.34521	-893.20398	-624.76929	168.82028	-1061.0741	-697.30884	179.68715	-1145.1932
397	1.975	-459.94672	119.74499	-595.46063	-513.66028	123.50177	-582.59137	-435.55505	540.9975	-409.92743	-542.10608	508.31403	-446.22806	-412.61148	950.07324	-604.69604	-679.73932	966.93604	-831.33618	-776.02667	501.45227	-773.55603	-813.98517	549.37305	-878.61603	-630.38934	177.86525	-1052.1497	-703.32678	188.88707	-1136.1665
398	1.98	-459.45978	119.27202	-595.54242	-513.09686	122.89002	-582.38702	-432.95023	540.55994	-410.71564	-539.53027	508.40866	-446.97339	-410.0191	953.55792	-600.7785	-678.83704	968.02661	-824.72375	-783.81482	506.59662	-757.75586	-821.87201	553.74841	-862.89478	-636.03644	187.60645	-1042.7003	-709.29944	198.6758	-1126.6823
399	1.985	-459.2355	118.96229	-595.59747	-512.58655	123.00478	-583.53619	-430.03745	540.45929	-411.96292	-536.5694	509.36444	-447.20529	-407.15869	957.20941	-596.99805	-677.45099	970.11255	-819.98267	-791.03448	512.7998	-742.12256	-829.58624	558.79504	-846.74304	-641.02222	198.17236	-1032.9869	-714.76843	209.27379	-1116.4574
400	1.99	-458.97607	118.80907	-595.64661	-512.48303	123.10999	-583.47089	-426.90808	540.66101	-413.6778	-533.48645	510.47961	-447.33081	-404.08682	960.94568	-593.38422	-676.61523	972.4126	-812.57709	-797.19989	519.43188	-725.71149	-836.75336	564.39044	-830.2923	-645.46161	209.57179	-1022.9157	-720.12518	219.82811	-1104.8795
401	1.995	-458.65988	118.79146	-595.6225	-511.97095	123.40765	-583.37262	-423.57944	541.12823	-415.73074	-530.17365	511.84656	-447.33795	-400.67865	964.82922	-590.10229	-676.34595	974.47858	-805.51355	-802.17706	526.46497	-708.62201	-843.2345	570.12097	-812.28711	-648.84363	222.09216	-1012.7182	-726.15698	231.16985	-1092.7029
402	2	-457.97577	119.0016	-595.70288	-511.0618	123.905	-583.35413	-420.09439	541.81085	-418.12854	-526.67194	513.34796	-447.53354	-396.8793	968.83826	-587.28894	-676.22388	978.19672	-797.99017	-805.93555	533.58301	-690.92468	-849.10077	576.27136	-793.98999	-652.03644	235.71941	-1002.092	-731.99518	242.60139	-1079.4049
403	2.005	-457.04498	119.34467	-595.74768	-510.06137	124.54516	-583.39734	-416.47195	542.63477	-420.87848	-522.88989	514.94086	-448.04105	-392.57938	972.9079	-585.03973	-677.30737	980.8783	-789.50262	-808.2691	540.76178	-672.61047	-854.40686	582.62	-774.77393	-654.72656	249.88646	-991.63483	-737.64203	254.05658	-1064.9501
404	2.01	-455.95331	119.66129	-595.85687	-508.90262	125.32875	-583.4007	-412.65042	543.65881	-423.78186	-519.03833	516.47485	-449.24878	-387.84259	976.98627	-583.55804	-678.3819	986.90332	-780.3009	-809.34955	547.65729	-653.83325	-859.00269	589.14642	-754.88702	-656.64154	265.32526	-980.88501	-742.52075	265.16327	-1049.4391
405	2.015	-454.70251	120.13408	-596.08276	-507.55191	126.19775	-583.54968	-408.6077	544.88232	-426.96188	-514.95013	518.07178	-451.13107	-382.46933	981.09674	-583.2019	-680.2121	991.90631	-771.15002	-809.28955	554.45123	-634.35236	-862.9422	595.63092	-734.15643	-657.9007	281.99835	-969.74731	-746.62061	276.71466	-1034.674
406	2.02	-453.23196	120.69919	-596.39209	-505.74814	126.71426	-583.40106	-404.57602	546.16339	-430.74411	-510.86044	519.84796	-453.40915	-376.43253	984.98511	-584.41327	-682.94965	997.90063	-758.37402	-808.10126	561.05762	-614.14252	-865.95441	602.13776	-712.70447	-658.42987	299.80209	-957.8551	-749.01562	289.14062	-1020.0004
407	2.025	-451.78467	121.37987	-596.76239	-504.18091	127.74136	-583.41016	-399.85516	547.66846	-434.39883	-506.09119	521.60004	-457.349	-369.86005	988.44916	-587.11444	-685.82446	1003.2881	-744.14874	-805.90149	567.4649	-593.43689	-868.12384	608.64288	-690.3631	-658.66724	318.18777	-944.92688	-750.50885	304.02429	-1006.0233
408	2.03	-450.36148	122.03157	-597.20184	-502.76978	129.04822	-583.74982	-395.27142	549.25806	-438.91003	-501.82404	523.48267	-460.51193	-363.043	991.53497	-591.27167	-687.33862	1009.7999	-732.4906	-802.53027	573.82166	-571.68457	-869.41638	615.33368	-667.00311	-658.88977	337.00931	-931.36322	-751.18854	320.37897	-991.64307
409	2.035	-448.97974	122.80708	-597.6958	-501.35965	130.29634	-583.72974	-390.34784	550.98108	-443.67215	-497.30972	525.49866	-463.77509	-356.20581	994.35187	-596.45306	-688.8053	1015.7892	-719.27979	-798.23096	580.41608	-549.84155	-869.66498	621.98608	-642.72955	-659.02808	356.16537	-916.62726	-751.47961	338.47803	-976.3053
410	2.04	-447.75455	123.67728	-598.11902	-499.87238	131.49638	-583.50446	-385.32959	552.76031	-448.84073	-492.6817	527.66541	-466.87024	-349.45691	997.08362	-602.47687	-689.59448	1022.1132	-705.28741	-792.65424	587.31964	-527.58875	-868.60645	629.56305	-615.41876	-659.27002	375.48407	-901.31195	-751.3786	357.91501	-960.04871
411	2.045	-446.58905	124.74712	-598.64032	-498.96133	132.79749	-581.93152	-380.10156	554.75519	-454.42004	-487.94131	529.91034	-470.00757	-343.02148	999.85083	-609.32538	-689.45007	1029.0353	-691.44305	-785.69067	595.04297	-504.4198	-866.69397	637.75903	-588.88177	-659.77856	395.23407	-885.18384	-752.93488	377.98532	-943.0871
412	2.05	-445.44241	125.98409	-599.14948	-497.46078	134.69553	-582.20465	-374.90921	556.87524	-460.20239	-483.09927	532.40765	-472.73914	-337.03625	1002.7226	-616.8866	-688.50726	1035.5521	-677.87421	-777.2663	603.46729	-481.24484	-863.57666	646.77826	-561.23883	-660.797	415.20203	-868.39484	-755.61938	398.23944	-924.42474
413	2.055	-444.39267	127.44839	-599.75757	-496.18719	136.62125	-581.43256	-369.43289	559.255	-466.13953	-478.09326	534.94135	-475.41992	-331.53488	1005.5419	-625.29608	-686.90942	1041.9617	-664.28503	-767.24335	612.8075	-457.7377	-858.97461	656.73053	-532.79633	-662.19464	435.67975	-850.96094	-757.86743	420.91998	-903.96185
414	2.06	-443.41333	128.97929	-600.25049	-494.68869	138.81491	-580.5163	-364.27054	561.59961	-472.21741	-473.6969	538.41321	-475.94879	-327.15228	1008.8256	-633.87152	-684.5683	1048.4023	-651.4057	-755.948	623.2027	-434.42496	-852.62115	667.34094	-503.88663	-664.22113	456.55594	-833.12622	-762.40088	442.10379	-884.76532
